<?xml version="1.0" standalone="no"?><!DOCTYPE svg PUBLIC "-//W3C//DTD SVG 1.1//EN" "http://www.w3.org/Graphics/SVG/1.1/DTD/svg11.dtd"><svg t="1542270094256" class="icon" style="" viewBox="0 0 1024 1024" version="1.1" xmlns="http://www.w3.org/2000/svg" p-id="1171" xmlns:xlink="http://www.w3.org/1999/xlink" width="200" height="200"><defs><style type="text/css"></style></defs><path d="M708.608 978.944H498.688l-32.768-17.408-399.36-555.008-7.168-30.72L94.208 163.84l18.432-27.648 138.24-91.136 56.32 10.24 153.6 218.112-10.24 57.344-63.488 45.056 216.064 293.888 74.752-40.96 53.248 12.288L839.68 797.696l-2.048 50.176-98.304 116.736-30.72 14.336z m-188.416-81.92h169.984l65.536-77.824-70.656-100.352-73.728 38.912-52.224-11.264-263.168-356.352 9.216-57.344 64.512-45.056-107.52-152.576-90.112 59.392L143.36 372.736l376.832 524.288z" fill="#437DFF" p-id="1172"></path><path d="M779.264 535.552l-36.864-49.152c24.576-18.432 40.96-45.056 46.08-75.776s-3.072-61.44-21.504-86.016c-18.432-24.576-45.056-40.96-75.776-46.08s-61.44 3.072-86.016 21.504l-36.864-49.152c37.888-27.648 84.992-39.936 132.096-32.768 47.104 6.144 88.064 30.72 116.736 68.608s39.936 84.992 32.768 132.096c-8.192 47.104-32.768 88.064-70.656 116.736z" fill="#63F7DE" p-id="1173"></path><path d="M845.824 626.688L808.96 577.536C911.36 501.76 933.888 358.4 858.112 256c-74.752-102.4-219.136-123.904-320.512-49.152L501.76 157.696c129.024-95.232 311.296-67.584 406.528 62.464 95.232 129.024 66.56 311.296-62.464 406.528z" fill="#63F7DE" p-id="1174"></path></svg>